# xmcd
#
# Track frame offsets:
#	150
#	8235
#	19245
#	41880
#	53130
#	64455
#	77655
#	90405
#	99638
#	108631
#	123699
#	133089
#	144107
#	153977
#	166232
#	178682
#	189160
#	201220
#	214518
#	229616
#
# Disc length: 3198 seconds
#
# Revision: 1
# Processed by: cddbd v1.5.2PL0 Copyright (c) Steve Scherf et al.
# Submitted via: audiograbber 1.83.01
#
DISCID=100c7c14
DTITLE=Johnny Rodriguez - 20 Original Hits
DYEAR=1900
DGENRE=Country
TTITLE0=That's The Way Love Goes
TTITLE1=Pass Me By (If You're Only Passing Through)
TTITLE2=Lyin' Eyes
TTITLE3=Take Me Back
TTITLE4=I Just Can't Get Her Out Of My Head
TTITLE5=Hillbilly Heart
TTITLE6=I Wonder If I Ever Said Goodbye
TTITLE7=I Can't Get Used To Sleeping Without You
TTITLE8=Just Get Up And Close The Door
TTITLE9=Desperado
TTITLE10=Riding My Thumb To Mexico
TTITLE11=Dance With Me (Just One More Time)
TTITLE12=Am I That Easy To Forget
TTITLE13=Love Put A Song In My Heart
TTITLE14=Something
TTITLE15=We're Over
TTITLE16=I Couldn't Be Me Without You
TTITLE17=I Wonder Where You Are Tonight
TTITLE18=Havie I Told You Lately That I Love You
TTITLE19=You Always Come Back (To Hurting Me)
EXTD=
EXTT0=
EXTT1=
EXTT2=
EXTT3=
EXTT4=
EXTT5=
EXTT6=
EXTT7=
EXTT8=
EXTT9=
EXTT10=
EXTT11=
EXTT12=
EXTT13=
EXTT14=
EXTT15=
EXTT16=
EXTT17=
EXTT18=
EXTT19=
PLAYORDER=
